<?xml version="1.0" encoding="UTF-8"?>
<svg width="48" height="48" viewBox="0 0 48 48" fill="none" xmlns="http://www.w3.org/2000/svg">
    <circle cx="24" cy="24" r="24" fill="#007DFF"/>
    <path d="M24 13C20.13 13 17 16.13 17 20C17 23.87 20.13 27 24 27C27.87 27 31 23.87 31 20C31 16.13 27.87 13 24 13ZM24 25C21.24 25 19 22.76 19 20C19 17.24 21.24 15 24 15C26.76 15 29 17.24 29 20C29 22.76 26.76 25 24 25Z" fill="white"/>
    <path d="M24 28C19.03 28 15 32.03 15 37V39H33V37C33 32.03 28.97 28 24 28ZM31 37H17C17 33.13 20.13 30 24 30C27.87 30 31 33.13 31 37Z" fill="white"/>
</svg> 