<?xml version="1.0" standalone="no"?><!DOCTYPE svg PUBLIC "-//W3C//DTD SVG 1.1//EN" "http://www.w3.org/Graphics/SVG/1.1/DTD/svg11.dtd"><svg t="1748155975647" class="icon" viewBox="0 0 1024 1024" version="1.1" xmlns="http://www.w3.org/2000/svg" p-id="8275" xmlns:xlink="http://www.w3.org/1999/xlink" width="200" height="200"><path d="M980.486566 313.189615a510.635242 510.635242 0 1 0 40.85082 197.445627 510.635242 510.635242 0 0 0-40.85082-197.445627z m-177.020217-54.467759L619.637662 605.953821l-13.61694 13.61694-347.231965 183.828687h-34.042349a27.23388 27.23388 0 0 1-6.80847-34.04235l183.828687-354.040434 13.61694-13.61694 347.231965-183.828687h34.042349a27.23388 27.23388 0 0 1 6.80847 40.850819z" fill="#999999" p-id="8276"></path><path d="M551.552963 469.784423a61.276229 61.276229 0 0 0-40.850819-20.42541l-40.85082 20.42541a61.276229 61.276229 0 0 0 0 88.510108l40.85082 20.42541 40.850819-20.42541a61.276229 61.276229 0 0 0 0-88.510108z m-13.61694 68.084699l-27.233879 13.61694-27.23388-13.61694a40.850819 40.850819 0 0 1 0-54.467759l27.23388-13.61694 27.233879 13.61694a40.850819 40.850819 0 0 1 0 54.467759z" fill="#999999" p-id="8277"></path></svg>