<?xml version="1.0" standalone="no"?><!DOCTYPE svg PUBLIC "-//W3C//DTD SVG 1.1//EN" "http://www.w3.org/Graphics/SVG/1.1/DTD/svg11.dtd"><svg t="1748156051069" class="icon" viewBox="0 0 1024 1024" version="1.1" xmlns="http://www.w3.org/2000/svg" p-id="11352" xmlns:xlink="http://www.w3.org/1999/xlink" width="200" height="200"><path d="M517.12 850.944h-80.896L212.992 972.8V750.08C101.888 671.744 30.72 560.128 30.72 425.472 30.72 190.464 248.32 0 517.12 0s486.4 190.464 486.4 425.472c0 235.008-217.6 425.472-486.4 425.472z m0-790.016c-235.008 0-425.472 163.328-425.472 365.056 0 123.392 72.704 238.08 182.272 304.128V865.28l162.304-74.24H517.12c235.008 0 425.472-163.328 425.472-365.056S752.128 60.928 517.12 60.928zM760.32 486.4c-33.792 0-60.928-27.136-60.928-60.928s27.136-60.928 60.928-60.928c33.792 0 60.928 27.136 60.928 60.928S794.112 486.4 760.32 486.4zM517.12 486.4c-33.792 0-60.928-27.136-60.928-60.928s27.136-60.928 60.928-60.928c33.792 0 60.928 27.136 60.928 60.928S550.912 486.4 517.12 486.4z m-243.2 0c-33.792 0-60.928-27.136-60.928-60.928s27.136-60.928 60.928-60.928c33.792 0 60.928 27.136 60.928 60.928S307.712 486.4 273.92 486.4z" fill="" p-id="11353"></path></svg>