<?xml version="1.0" standalone="no"?><!DOCTYPE svg PUBLIC "-//W3C//DTD SVG 1.1//EN" "http://www.w3.org/Graphics/SVG/1.1/DTD/svg11.dtd"><svg t="1748359197748" class="icon" viewBox="0 0 1024 1024" version="1.1" xmlns="http://www.w3.org/2000/svg" p-id="2993" xmlns:xlink="http://www.w3.org/1999/xlink" width="200" height="200"><path d="M640 102.4H25.6c-14.336 0-25.6 11.264-25.6 25.6s11.264 25.6 25.6 25.6h614.4c14.336 0 25.6-11.264 25.6-25.6s-11.264-25.6-25.6-25.6zM640 486.4H25.6c-14.336 0-25.6 11.264-25.6 25.6s11.264 25.6 25.6 25.6h614.4c14.336 0 25.6-11.264 25.6-25.6s-11.264-25.6-25.6-25.6zM640 870.4H25.6c-14.336 0-25.6 11.264-25.6 25.6s11.264 25.6 25.6 25.6h614.4c14.336 0 25.6-11.264 25.6-25.6s-11.264-25.6-25.6-25.6zM855.04 102.4c-14.336 0-25.6 11.264-25.6 25.6v768c0 14.336 11.264 25.6 25.6 25.6s25.6-11.264 25.6-25.6V128c0-14.336-11.264-25.6-25.6-25.6z" fill="" p-id="2994"></path><path d="M1017.344 733.696c-10.24-10.24-26.112-10.24-36.352 0l-144.896 144.896c-10.24 10.24-10.24 26.112 0 36.352s26.112 10.24 36.352 0l144.896-144.896c9.728-10.24 9.728-26.112 0-36.352z" fill="" p-id="2995"></path></svg>